<?xml version="1.0" encoding="utf-8"?>
<!-- Generator: Adobe Illustrator 16.0.0, SVG Export Plug-In . SVG Version: 6.00 Build 0)  -->
<!DOCTYPE svg PUBLIC "-//W3C//DTD SVG 1.1//EN" "http://www.w3.org/Graphics/SVG/1.1/DTD/svg11.dtd">
<svg version="1.1" id="Layer_1" xmlns="http://www.w3.org/2000/svg" xmlns:xlink="http://www.w3.org/1999/xlink" x="0px" y="0px"
	 width="792px" height="612px" viewBox="0 0 792 612" enable-background="new 0 0 792 612" xml:space="preserve">
<g>
	<path fill-rule="evenodd" clip-rule="evenodd" d="M170.427,325.642c0,0,0.045-7.193,6.924-7.193s7.509,6.825,8.769,11.866
		l16.778,71.213h54.705l-25.042-93.592l-25.846-6.005l21.668-10.182l19.308-80.278h-48.859c-2.367,9.248-15.82,61.809-16.613,64.745
		c-0.87,3.22-1.612,8.26-6.665,8.26c-5.053,0-5.127-5.127-5.127-5.127v-67.877H119.91v190.057h50.517V325.642z"/>
	<path d="M345.369,209.135h-37.776c-22.839,0-41.354,18.514-41.354,41.353v112.036c0,22.84,18.515,41.354,41.354,41.354h37.776
		c22.839,0,41.354-18.515,41.354-41.354V250.488C386.723,227.649,368.208,209.135,345.369,209.135z M337.185,351.925
		c0,5.912-4.792,10.704-10.704,10.704c-5.912,0-10.704-4.792-10.704-10.704v-88.066c0-5.912,4.792-10.704,10.704-10.704
		c5.911,0,10.704,4.792,10.704,10.704V351.925z"/>
	<path d="M520.258,307.936l-26.433-6.903l-0.002-0.001c19.874-3.135,29.28-14.7,29.28-29.727v-30.886
		c0-15.987-12.96-28.947-28.947-28.947h-86.549v190.057h50.517v-75.886c0,0,0.046-7.193,6.925-7.193
		c6.878,0,7.509,6.825,8.769,11.866l16.778,71.213H545.3L520.258,307.936z M475.93,272.381c0,4.896-3.969,8.865-8.865,8.865
		s-8.865-3.969-8.865-8.865v-17.148c0-4.896,3.969-8.865,8.865-8.865s8.865,3.969,8.865,8.865V272.381z"/>
	<path d="M624.293,274.126v77.695c0,5.876-4.764,10.639-10.639,10.639c-5.876,0-10.639-4.763-10.639-10.639v-88.502
		c0-5.875,4.763-10.638,10.639-10.638h58.936v-41.21h-78.477c-22.839,0-41.354,18.514-41.354,41.353v107.351
		c0,22.839,18.515,41.353,41.354,41.353h78.477V274.126H624.293z"/>
</g>
</svg>
