<?xml version="1.0" encoding="utf-8"?>
<!-- Generator: Adobe Illustrator 19.2.1, SVG Export Plug-In . SVG Version: 6.00 Build 0)  -->
<svg version="1.1" id="layer" xmlns="http://www.w3.org/2000/svg" xmlns:xlink="http://www.w3.org/1999/xlink" x="0px" y="0px"
	 viewBox="0 0 652 652" style="enable-background:new 0 0 652 652;" xml:space="preserve">
<style type="text/css">
	.st0{fill:#231815;}
	.st1{fill:#B60031;}
</style>
<path class="st0" d="M213.4,230.5H21v113.7h25.2v-89.1h172.1v20.4l-126.7,0c-19,0-34.4,15.4-34.4,34.4c0,19,15.4,34.4,34.4,34.4
	l156.3,0l0-24.5H87v-20.6l126.3,0c19,0,34.4-15.4,34.4-34.4C247.7,245.9,232.3,230.5,213.4,230.5"/>
<path class="st0" d="M621,230.6H469c-19,0-34.4,15.4-34.4,34.4s15.4,34.4,34.4,34.4l122.1-0.1v20.6H448
	c-2.5,10.1-8.6,18.7-16.9,24.4l155.5,0c19,0,34.4-15.4,34.4-34.4c0-19-15.4-34.4-34.4-34.4H464.2v-20.4H621V230.6"/>
<path class="st0" d="M445.3,230.6H289.8c-19,0-34.4,15.4-34.4,34.4s15.4,34.4,34.4,34.4l122.1-0.1v20.6H255.3v24.4l152.1,0
	c19,0,34.4-15.4,34.4-34.4c0-19-15.4-34.4-34.4-34.4H285v-20.4h143.5C430.9,245,437,236.3,445.3,230.6"/>
<path class="st1" d="M601.6,407.7c-3.1,0-5.7-1.1-7.8-3.3c-2.1-2.2-3.2-4.9-3.2-8c0-3.1,1.1-5.6,3.3-7.7c2.2-2.1,4.8-3.1,7.7-3.1
	c3.1,0,5.7,1,7.9,3c2.2,2,3.3,4.6,3.3,7.9c0,3.4-1.1,6.1-3.2,8.1C607.4,406.6,604.7,407.7,601.6,407.7z M619.2,367.1h-4.4
	c-1.1,0-1.7,0.6-1.8,1.8v13.3c0,0.7-0.2,1.1-0.4,1.1l-0.6-0.2c-3.2-2.4-6.8-3.7-10.8-3.7c-4.9,0-9.3,1.7-13.2,5
	c-3.8,3.3-5.7,7.3-5.7,11.9c0,5.2,1.8,9.4,5.5,12.7c3.6,3.3,7.8,4.9,12.6,4.9c4.3,0,8.1-1.4,11.6-4.1c0.2-0.1,0.4-0.2,0.7-0.1
	c0.1,0.1,0.2,0.4,0.3,1c0,1.3,0.6,2,1.8,2h4.4c1.1,0,1.7-0.6,1.8-1.8v-41.9C621,367.7,620.4,367.1,619.2,367.1z M578.7,410.8v-18.4
	c0-3.8-1.4-7.1-4.3-9.8c-2.6-2.4-5.4-3.6-8.3-3.6c-5.3,0-9.8,1.4-13.3,4.1c-0.1,0.2-0.4,0.2-0.7,0.2c-0.3,0-0.4-0.1-0.4-0.4v-1.9
	c0-1.2-0.6-1.8-1.8-1.8l-4.4-0.1c-1.1,0-1.7,0.6-1.8,1.8v29.8c0,1.2,0.6,1.8,1.8,1.8h4.4c1.2,0,1.7-0.6,1.7-1.8l0.1-14.6
	c0-2.5,0.8-4.8,2.5-6.9c2-2.6,5.1-3.9,9.2-3.9c4.9,0,7.4,2.3,7.4,7l0.1,18.4c0,1.2,0.6,1.8,1.8,1.8h4.3
	C578,412.6,578.6,412,578.7,410.8z M514,405.8c-1.1-0.7-1.6-1.6-1.6-2.8c0-1.5,0.6-2.6,1.9-3.3c1.3-0.7,3.7-1.3,7.4-1.7
	c0.9-0.1,1.7-0.1,2.6-0.1c0.8,0,1.5,0,1.9,0h3.4c0.7,0,1.1,0.4,1.2,1c0,2.7-1.2,4.9-3.5,6.5c-1.9,1.3-4.3,2-7.1,2
	C517.6,407.3,515.6,406.8,514,405.8z M538.7,391.9c0-4.6-1.9-8-5.8-10.3c-3-1.8-6.8-2.7-11.2-2.7c-8.2,0-13.5,3.2-16.2,9.5
	c-0.2,0.3-0.1,0.6,0.2,1c0.3,0.2,0.6,0.4,1,0.5h5.6c0.9,0,1.7-0.4,2.2-1.3c1.4-2.2,4.1-3.3,8.2-3.3c2.2,0,3.9,0.3,5.1,0.9
	c0.9,0.4,1.8,1.3,2.7,2.5c0.1,0.2,0.3,0.6,0.3,1.1c0,0.5-0.1,0.9-0.4,1.3c-0.3,0.4-0.7,0.6-1.1,0.6c-3.2,0-6.4,0.2-9.5,0.5
	c-1.8,0.2-4.3,0.6-7.4,1.1c-2.3,0.3-4.3,1.4-5.8,3.4c-0.8,1-1.4,2-1.7,3c-0.4,1-0.6,2.2-0.6,3.4c0,3.3,1.5,6.1,4.7,8.5
	c2.4,1.7,5.5,2.6,9.3,2.6c4.9,0,8.7-1.2,11.6-3.7c0.3-0.2,0.6-0.4,0.7-0.4c0.2,0,0.5,0.3,0.7,0.9c0.4,1.2,1.3,1.8,2.6,1.8h3
	c1.1,0,1.7-0.6,1.8-1.8V391.9z M492.1,368.9v41.9c0,1.2,0.7,1.8,1.9,1.8h5c1.2,0,1.8-0.6,1.8-1.8v-41.9c0-1.2-0.6-1.8-1.8-1.8h-5
	C492.9,367.1,492.2,367.7,492.1,368.9z M468.6,407.6c-3.9,0-7.1-1.3-9.4-3.8c-2.1-2.1-3.1-4.6-3.1-7.4c0-2.7,1-5.1,3.1-7.4
	c2.4-2.5,5.4-3.8,9.2-3.8c3.7,0,6.8,1.2,9.3,3.7c2,2.2,3,4.7,3,7.4c0,2.8-1,5.2-3,7.4C475.4,406.3,472.4,407.6,468.6,407.6z
	 M468.5,379c-6.7,0-12,1.9-15.9,5.8c-3.3,3.3-4.9,7.1-4.9,11.6c0,4.5,1.7,8.4,5,11.7c3.8,3.7,9.1,5.6,15.9,5.6
	c6.7,0,12-1.9,15.7-5.7c3.3-3.3,4.9-7.1,4.9-11.7c0-4.4-1.6-8.3-4.9-11.6C480.6,381,475.3,379,468.5,379z M430.7,386.1
	c4.8,0,7.1-2.1,7.1-6.5c0-4.3-2.4-6.5-7.1-6.5h-16.2c-1.2,0-1.8,0.6-1.8,1.8v9.3c0,1.2,0.6,1.8,1.8,1.8H430.7z M447.1,411.6
	l-0.1,0.7c-0.1,0.2-0.3,0.3-0.6,0.4H441c-1.5,0-2.6-0.6-3-1.8c-0.2-0.6-0.7-3.5-1.5-8.5c-0.4-3.3-1.4-6.1-3-8.3
	c-0.9-1.2-2.7-1.8-5.4-1.8h-13.6c-1.1,0-1.7,0.6-1.8,1.8v16.8c0,1.2-0.6,1.8-1.8,1.8h-4.1c-1.1,0-1.7-0.6-1.8-1.8v-41.9
	c0-1.2,0.6-1.8,1.8-1.8h26.5c3.3,0,6.1,1,8.7,3.1c2.8,2.3,4.2,5.5,4.2,9.4c0,4-1.9,7.4-5.7,10.1c-0.3,0.3-0.4,0.5-0.3,0.7
	c0.9,0.7,1.6,1.6,2.1,2.7l1,3.6l1.6,7.8C445.4,407.3,446.2,409.7,447.1,411.6z"/>
<path class="st1" d="M362.1,392.3c0-7.6-4.5-11.6-11.5-11.6c-0.7,0-2.1,0-3.9,0.3v-9.5h-6v31.5c2.6,0.6,6.7,0.9,8.7,0.9
	C356.5,403.7,362.1,399.9,362.1,392.3z M355.9,392.3c0,3.2-1.2,6.9-5.4,7.1c-1.3,0-2.5-0.1-3.8-0.3V385c0,0,1.7-0.2,3.4-0.2
	C354.4,384.9,355.9,388.1,355.9,392.3z"/>
<polygon class="st1" points="363.6,381 370.4,381 375.1,395.9 375.5,395.9 380.8,381 387,381 375.3,412.6 369,412.6 372.5,403.3 "/>
</svg>
